<svg version="1.0" xmlns="http://www.w3.org/2000/svg" width="512.000000pt" height="512.000000pt" viewBox="0 0 512.000000 512.000000" preserveAspectRatio="xMidYMid meet">

<g transform="translate(0.000000,512.000000) scale(0.100000,-0.100000)" fill="#ff0b00" stroke="none">
<path d="M2378 4999 c-866 -71 -1646 -604 -2028 -1384 -86 -176 -138 -320 -184 -505 -55 -224 -70 -352 -70 -600 0 -248 15 -376 70 -600 160 -649 565 -1196 1144 -1545 778 -469 1782 -469 2560 0 579 349 984 896 1144 1545 55 224 70 352 70 600 0 248 -15 376 -70 600 -82 332 -220 624 -424 895 -520 693 -1348 1066 -2212 994z m572 -285 c615 -89 1153 -439 1521 -988 184 -274 293 -566 340 -916 17 -121 17 -466 1 -590 -65 -496 -259 -892 -617 -1259 -208 -214 -391 -349 -630 -466 -296 -145 -610 -215 -967 -215 -679 0 -1257 265 -1699 779 -343 399 -509 829 -526 1361 -9 295 25 546 108 795 213 642 772 1200 1410 1409 188 62 300 83 564 110 83 8 384 -4 495 -20z" fill="#ff0b00"/>
<path d="M2120 3415 l0 -445 -440 0 -440 0 0 -465 c0 -256 1 -466 3 -467 1 -1 198 -5 437 -8 l435 -5 3 -432 2 -432 43 -6 c23 -3 236 -5 472 -3 l430 3 5 427 c3 234 9 430 13 435 5 4 199 9 433 11 417 3 424 3 435 23 8 15 9 140 5 438 -4 229 -9 431 -12 449 l-5 32 -417 0 c-229 0 -427 3 -439 6 l-23 6 0 408 c0 224 -3 422 -6 439 l-6 31 -464 0 -464 0 0 -445z" fill="#ff0b00"/>
</g>
</svg>